<?xml version="1.0" ?>
<!-- Uploaded to: SVG Repo, www.svgrepo.com, Generator: SVG Repo Mixer Tools -->
<svg width="800px" height="800px" viewBox="-1 0 60 60" xmlns="http://www.w3.org/2000/svg">
  <defs>
    <style>
      .cart-image {
        fill: #ffffff;
        fill-rule: evenodd;
      }
    </style>
  </defs>
  <path class="cart-image"
    d="M826.828,970.83A3.988,3.988,0,0,1,824,972H780v7.418a0.582,0.582,0,0,0,.582.582l2.129,0a6.971,6.971,0,0,1,12.615,0h15.383a7.009,7.009,0,1,1-.6,4H795.922a6.973,6.973,0,0,1-13.809,0H782v0h-2a4,4,0,0,1-4-4V934h-4a2,2,0,0,1,0-4h8v8h48v30A3.988,3.988,0,0,1,826.828,970.83ZM817,985.937a3,3,0,1,0-3-3A3,3,0,0,0,817,985.937Zm-28,0a3,3,0,1,0-3-3A3,3,0,0,0,789,985.937ZM792,944a2,2,0,0,0-2-2h-8a2,2,0,0,0-2,2v2a2,2,0,0,0,2,2h8a2,2,0,0,0,2-2v-2Zm0,10a2,2,0,0,0-2-2h-8a2,2,0,0,0-2,2v2a2,2,0,0,0,2,2h8a2,2,0,0,0,2-2v-2Zm0,10a2,2,0,0,0-2-2h-8a2,2,0,0,0-2,2v2a2,2,0,0,0,2,2h8a2,2,0,0,0,2-2v-2Zm16-20a2,2,0,0,0-2-2h-8a2,2,0,0,0-2,2v2a2,2,0,0,0,2,2h8a2,2,0,0,0,2-2v-2Zm0,10a2,2,0,0,0-2-2h-8a2,2,0,0,0-2,2v2a2,2,0,0,0,2,2h8a2,2,0,0,0,2-2v-2Zm0,10a2,2,0,0,0-2-2h-8a2,2,0,0,0-2,2v2a2,2,0,0,0,2,2h8a2,2,0,0,0,2-2v-2Zm16-20a2,2,0,0,0-2-2h-8a2,2,0,0,0-2,2v2a2,2,0,0,0,2,2h8a2,2,0,0,0,2-2v-2Zm0,10a2,2,0,0,0-2-2h-8a2,2,0,0,0-2,2v2a2,2,0,0,0,2,2h8a2,2,0,0,0,2-2v-2Zm0,10a2,2,0,0,0-2-2h-8a2,2,0,0,0-2,2v2a2,2,0,0,0,2,2h8a2,2,0,0,0,2-2v-2Z"
    data-name="shopping cart" id="shopping_cart" transform="translate(-770 -930)" />
</svg>